# xmcd
#
# Track frame offsets:
#	150
#	17225
#	69224
#	84912
#	101280
#	122122
#	147670
#	168072
#	186483
#	209430
#	227686
#	228786
#	251157
#	270505
#	287938
#	307552
#
# Disc length: 4369 seconds
#
# Revision: 0
# Processed by: cddbd v1.5.1PL2 Copyright (c) Steve Scherf et al.
# Submitted via: dBpowerAMP V4.0
#
DISCID=d5110f10
DTITLE=Ginuwine - The Senior
DYEAR=1900
DGENRE=R&B
TTITLE0=Mike Tyson
TTITLE1=Get Ready (feat. Snoop Dogg and The Rook)
TTITLE2=Chedda Brings (feat. Jose Cenquentez)
TTITLE3=Hell Yeah (feat. Baby)
TTITLE4=In Those Jeans
TTITLE5=Stingy
TTITLE6=Love You More 
TTITLE7=Bedda To Have Loved
TTITLE8=Locked Down
TTITLE9=On My Way
TTITLE10=Sex (feat. Sole)
TTITLE11=Bedda Man
TTITLE12=Our First Born
TTITLE13=Big Plans (feat. Method Man)
TTITLE14=Hell Yeah (Remix) (feat. R Kelly, Baby and Clipse)
TTITLE15=Tigger and The Gizzle
EXTD=
EXTT0=
EXTT1=
EXTT2=
EXTT3=
EXTT4=
EXTT5=
EXTT6=
EXTT7=
EXTT8=
EXTT9=
EXTT10=
EXTT11=
EXTT12=
EXTT13=
EXTT14=
EXTT15=
PLAYORDER=
